<svg xmlns="http://www.w3.org/2000/svg" viewBox="0 0 500 500"><g id="freepik--Floor--inject-102"><path d="M18.19,472.23c0-.15,103.79-.26,231.8-.26s231.82.11,231.82.26-103.77.26-231.82.26S18.19,472.37,18.19,472.23Z" style="fill:#263238"></path></g><g id="freepik--Device--inject-102"><rect x="147.09" y="80.42" width="197.86" height="391.82" rx="25.34" style="fill:#455a64"></rect><rect x="53.23" y="180.51" width="385.59" height="191.63" rx="22.23" transform="translate(522.35 30.3) rotate(90)" style="fill:#263238"></rect><path d="M231.82,95.88a2.2,2.2,0,1,1,0-4.4h28.29a2.2,2.2,0,0,1,0,4.4Z" style="fill:#455a64"></path><path d="M216.64,95.88a2.2,2.2,0,1,1,2.2-2.2A2.21,2.21,0,0,1,216.64,95.88Z" style="fill:#455a64"></path><path d="M224.74,95.88a2.2,2.2,0,1,1,2.2-2.2A2.21,2.21,0,0,1,224.74,95.88Z" style="fill:#455a64"></path><path d="M275.41,95.88a2.2,2.2,0,1,1,2.2-2.2A2.21,2.21,0,0,1,275.41,95.88Z" style="fill:#455a64"></path><path d="M267.31,95.88a2.2,2.2,0,1,1,2.2-2.2A2.21,2.21,0,0,1,267.31,95.88Z" style="fill:#455a64"></path><path d="M320.38,86.18H292.6a9.89,9.89,0,0,0-9.5,7.13l-.47,1.62a10.58,10.58,0,0,1-10.16,7.63H219.58a10.58,10.58,0,0,1-10.16-7.63L209,93.31a9.89,9.89,0,0,0-9.5-7.13H174.24a19.57,19.57,0,0,0-19.57,19.57V445.51a18.41,18.41,0,0,0,18.41,18.41H320.71a16.67,16.67,0,0,0,16.67-16.67V103.18A17,17,0,0,0,320.38,86.18Z" style="fill:#fafafa"></path><path d="M346,165.58h.23a0,0,0,0,1,0,0v45a0,0,0,0,1,0,0H346a1.07,1.07,0,0,1-1.07-1.07v-42.9A1.07,1.07,0,0,1,346,165.58Z" transform="translate(691.21 376.19) rotate(180)" style="fill:#455a64"></path><path d="M146.81,193.33h.28a0,0,0,0,1,0,0v28.51a0,0,0,0,1,0,0h-.28a1.07,1.07,0,0,1-1.07-1.07V194.4A1.07,1.07,0,0,1,146.81,193.33Z" style="fill:#455a64"></path><path d="M146.81,156.08h.28a0,0,0,0,1,0,0v28.51a0,0,0,0,1,0,0h-.28a1.07,1.07,0,0,1-1.07-1.07V157.15A1.07,1.07,0,0,1,146.81,156.08Z" style="fill:#455a64"></path><path d="M146.88,128.12h.21a0,0,0,0,1,0,0v13.26a0,0,0,0,1,0,0h-.21a.95.95,0,0,1-.95-.95V129.07a.95.95,0,0,1,.95-.95Z" style="fill:#455a64"></path><rect x="293.03" y="98.93" width="1.36" height="1.91" style="fill:#263238"></rect><rect x="295.24" y="98.08" width="1.36" height="2.75" style="fill:#263238"></rect><rect x="297.45" y="97.44" width="1.36" height="3.39" style="fill:#263238"></rect><rect x="299.66" y="96.21" width="1.36" height="4.62" style="fill:#263238"></rect><path d="M321.09,100.93h-6.83a.49.49,0,0,1-.49-.49V97.05a.49.49,0,0,1,.49-.49h6.83a.11.11,0,0,1,.08,0,.12.12,0,0,1,0,.09V97.8h.73a.13.13,0,0,1,.13.12v1.64a.12.12,0,0,1-.13.12h-.73v1.12A.13.13,0,0,1,321.09,100.93ZM321,96.81h-6.7a.24.24,0,0,0-.24.24v3.39a.24.24,0,0,0,.24.24H321V99.56a.13.13,0,0,1,.13-.13h.73V98.05h-.73a.13.13,0,0,1-.13-.13Z" style="fill:#263238"></path><polygon points="314.58 100.12 314.58 97.36 320.4 97.36 320.4 98.61 320.4 98.88 320.4 100.12 314.58 100.12" style="fill:#263238"></polygon><path d="M307.53,100.67a.5.5,0,0,0-.5-.5.5.5,0,1,0,.5.5Z" style="fill:#263238"></path><path d="M305.33,99.46l.63.64a1.53,1.53,0,0,1,1.07-.44,1.51,1.51,0,0,1,1.06.44l.64-.64a2.43,2.43,0,0,0-1.7-.7A2.39,2.39,0,0,0,305.33,99.46Z" style="fill:#263238"></path><path d="M307,97.34a3.84,3.84,0,0,0-2.71,1.12l.64.64a2.91,2.91,0,0,1,4.13,0l.64-.64A3.82,3.82,0,0,0,307,97.34Z" style="fill:#263238"></path><path d="M303.29,97.43l.64.63a4.39,4.39,0,0,1,6.2,0l.64-.63a5.29,5.29,0,0,0-7.48,0Z" style="fill:#263238"></path><path d="M310,153.43H186a12.34,12.34,0,0,1-12.34-12.33h0A12.34,12.34,0,0,1,186,128.77H310a12.33,12.33,0,0,1,12.33,12.33h0A12.33,12.33,0,0,1,310,153.43Z" style="fill:#e0e0e0"></path><path d="M306.77,145.8a4.71,4.71,0,1,1,4.71-4.7A4.71,4.71,0,0,1,306.77,145.8Zm0-8.47a3.77,3.77,0,1,0,3.77,3.77A3.77,3.77,0,0,0,306.77,137.33Z" style="fill:#263238"></path><path d="M313.09,147a.45.45,0,0,1-.31-.11l-3.1-2.71a.47.47,0,0,1,0-.66.46.46,0,0,1,.66,0l3.1,2.71a.47.47,0,0,1,0,.66A.44.44,0,0,1,313.09,147Z" style="fill:#263238"></path><path d="M232.69,388.49a4,4,0,1,1-4-4A4,4,0,0,1,232.69,388.49Z" style="fill:#ebebeb"></path><path d="M246,388.49a4,4,0,1,1-4-4A4,4,0,0,1,246,388.49Z" style="fill:#e0e0e0"></path><circle cx="255.33" cy="388.49" r="3.98" style="fill:#e0e0e0"></circle><path d="M272.62,388.49a4,4,0,1,1-4-4A4,4,0,0,1,272.62,388.49Z" style="fill:#e0e0e0"></path><rect x="171.97" y="408.29" width="32.08" height="32.08" rx="9.07" style="fill:#407BFF"></rect><rect x="211.96" y="407.99" width="32.08" height="32.08" rx="9.61" style="fill:#e0e0e0"></rect><rect x="251.95" y="407.69" width="32.08" height="32.08" rx="10.16" style="fill:#455a64"></rect><rect x="291.93" y="408.29" width="32.08" height="32.08" rx="10.28" style="fill:#263238"></rect><path d="M260.51,431.52l1.17-4.36a8,8,0,0,1-1-3.89,8.08,8.08,0,1,1,4.22,7.07Zm4.6-2.81.27.17a6.53,6.53,0,1,0-3.19-5.61,6.51,6.51,0,0,0,.95,3.38l.17.28-.65,2.44Z" style="fill:#fff"></path><path d="M271.62,424.44a1.34,1.34,0,0,0-1.15-.26c-.3.12-.49.59-.69.83a.29.29,0,0,1-.37.08,5.24,5.24,0,0,1-2.61-2.24.32.32,0,0,1,0-.43,1.73,1.73,0,0,0,.48-.77,1.7,1.7,0,0,0-.21-.91,2.16,2.16,0,0,0-.68-1,.91.91,0,0,0-1,.15,2,2,0,0,0-.7,1.6,2.1,2.1,0,0,0,.06.51,4.55,4.55,0,0,0,.49,1.13q.24.4.51.78A8.23,8.23,0,0,0,268,426a7,7,0,0,0,1.38.65,3.08,3.08,0,0,0,1.61.26,2,2,0,0,0,1.46-1.09,1,1,0,0,0,.07-.55C272.44,424.85,271.93,424.62,271.62,424.44Z" style="fill:#fff;fill-rule:evenodd"></path><path d="M193.67,426.26a2.54,2.54,0,0,0-2.19-.49c-.57.23-.93,1.12-1.3,1.57a.54.54,0,0,1-.7.16,9.88,9.88,0,0,1-4.95-4.24.61.61,0,0,1,.07-.83,3.29,3.29,0,0,0,.9-1.46,3.18,3.18,0,0,0-.4-1.73c-.3-.64-.63-1.56-1.28-1.92a1.74,1.74,0,0,0-1.9.28,3.85,3.85,0,0,0-1.33,3,4,4,0,0,0,.12,1,7.68,7.68,0,0,0,.93,2.14c.3.51.62,1,1,1.48a15,15,0,0,0,4.21,3.91,13.4,13.4,0,0,0,2.62,1.25,5.86,5.86,0,0,0,3.06.48,3.7,3.7,0,0,0,2.77-2.06,1.81,1.81,0,0,0,.13-1.05C195.24,427,194.26,426.61,193.67,426.26Z" style="fill:#fff;fill-rule:evenodd"></path><path d="M313,419.19a.94.94,0,1,0,.94.94A.94.94,0,0,0,313,419.19Z" style="fill:#fff"></path><path d="M308.83,420.12a3.94,3.94,0,1,0,3.93,3.94A3.95,3.95,0,0,0,308.83,420.12Zm0,6.46a2.52,2.52,0,1,1,2.52-2.52A2.52,2.52,0,0,1,308.83,426.58Z" style="fill:#fff"></path><path d="M312,432.32h-6.38a4.8,4.8,0,0,1-4.8-4.8v-6.38a4.8,4.8,0,0,1,4.8-4.8H312a4.8,4.8,0,0,1,4.8,4.8v6.38A4.8,4.8,0,0,1,312,432.32Zm-6.38-14.48a3.3,3.3,0,0,0-3.3,3.3v6.38a3.3,3.3,0,0,0,3.3,3.3H312a3.3,3.3,0,0,0,3.3-3.3v-6.38a3.3,3.3,0,0,0-3.3-3.3Z" style="fill:#fff"></path><path d="M220.9,431.85a.72.72,0,0,1-.5-1.22l3.81-3.81a6.57,6.57,0,0,1,.47-8.69,6.52,6.52,0,1,1,.53,9.7l-3.81,3.81A.71.71,0,0,1,220.9,431.85Zm8.39-14.2a5.09,5.09,0,1,0,3.6,1.49A5.06,5.06,0,0,0,229.29,417.65Z" style="fill:#fff"></path><path d="M260.39,216.59a1.26,1.26,0,0,0,.34,0,1.83,1.83,0,0,0,.87-.38,1.76,1.76,0,0,0,.44-.52,1.58,1.58,0,0,0,.14-.36,1.93,1.93,0,0,0,.05-.42,1.39,1.39,0,0,0-.07-.44A2,2,0,0,0,262,214a1.74,1.74,0,0,0-.74-.68h0v0a1.27,1.27,0,0,0-.68-1.14,1.25,1.25,0,0,0-1.41.23l0,0v-.05a2.35,2.35,0,0,0-1.44-1.66,2.45,2.45,0,0,0-.58-.14h-.3l-.3,0a2.16,2.16,0,0,0-1,.49,2.61,2.61,0,0,0-.66.87,2.27,2.27,0,0,0-.19,1v0h0a1.68,1.68,0,0,0-1.13.13,2.11,2.11,0,0,0-.45.31,2,2,0,0,0-.33.39,1.66,1.66,0,0,0-.17.45,1.71,1.71,0,0,0,0,.45,1.89,1.89,0,0,0,.24.75,1.78,1.78,0,0,0,.81.75,2.44,2.44,0,0,0,.38.13h-.1l-.12,0-.17-.06a1.8,1.8,0,0,1-.83-.75,1.94,1.94,0,0,1-.25-.77,1.81,1.81,0,0,1,0-.46,2,2,0,0,1,.18-.46,1.85,1.85,0,0,1,.34-.41,1.69,1.69,0,0,1,.46-.31,1.73,1.73,0,0,1,1.17-.15l0,0a2.21,2.21,0,0,1,.2-1,2.75,2.75,0,0,1,.67-.9,2.19,2.19,0,0,1,1-.5,1.55,1.55,0,0,1,.31,0h.15l.15,0a1.77,1.77,0,0,1,.6.15,2.39,2.39,0,0,1,1.48,1.69h0a1.3,1.3,0,0,1,1.48-.25,1.32,1.32,0,0,1,.7,1.2l0,0a1.79,1.79,0,0,1,.76.7,2.16,2.16,0,0,1,.19.45,1.74,1.74,0,0,1,.06.45,1.24,1.24,0,0,1,0,.43,1.44,1.44,0,0,1-.15.36,1.58,1.58,0,0,1-.45.53,1.75,1.75,0,0,1-.89.37.79.79,0,0,1-.26,0Z" style="fill:#263238"></path><path d="M260.55,216.77h-.19a.16.16,0,0,1-.13-.11.16.16,0,0,1,0-.16.19.19,0,0,1,.15,0,1.57,1.57,0,0,0,.29,0,1.67,1.67,0,0,0,.79-.35,1.5,1.5,0,0,0,.4-.47,1.73,1.73,0,0,0,.13-.33,1.55,1.55,0,0,0,0-.37,2.28,2.28,0,0,0-.06-.39,1.78,1.78,0,0,0-.17-.4,1.51,1.51,0,0,0-.67-.61.2.2,0,0,1-.11-.16,1.09,1.09,0,0,0-.58-1,1.07,1.07,0,0,0-1.22.21l0,0a.18.18,0,0,1-.16,0,.16.16,0,0,1-.11-.12l0-.06a2.16,2.16,0,0,0-1.34-1.53,1.87,1.87,0,0,0-.54-.14h-.35a1.25,1.25,0,0,0-.19,0,2,2,0,0,0-1,.46,2.31,2.31,0,0,0-.61.81,2,2,0,0,0-.18.93v0a.16.16,0,0,1-.06.13.15.15,0,0,1-.14,0h0a1.46,1.46,0,0,0-1,.12,1.65,1.65,0,0,0-.41.28,1.79,1.79,0,0,0-.3.36,1.67,1.67,0,0,0-.16.4,1.06,1.06,0,0,0,0,.39,1.54,1.54,0,0,0,.21.69,1.68,1.68,0,0,0,.74.69,2,2,0,0,0,.31.1.19.19,0,0,1,.14.08.2.2,0,0,1,0,.13.18.18,0,0,1-.21.11h-.08l-.15,0h0l-.15-.06a2,2,0,0,1-.9-.81,2,2,0,0,1-.27-.84,1.8,1.8,0,0,1,0-.5,1.77,1.77,0,0,1,.19-.51,2.34,2.34,0,0,1,.37-.45,2.38,2.38,0,0,1,.49-.34,2,2,0,0,1,1-.19,2.52,2.52,0,0,1,.21-.88,2.86,2.86,0,0,1,.71-1,2.35,2.35,0,0,1,1.14-.54.88.88,0,0,1,.24,0h.24l.18,0a2.26,2.26,0,0,1,.63.15,2.66,2.66,0,0,1,1.5,1.53,1.44,1.44,0,0,1,1.42-.08,1.47,1.47,0,0,1,.79,1.22,2,2,0,0,1,.72.71,2.26,2.26,0,0,1,.21.48,2.62,2.62,0,0,1,.07.5,1.82,1.82,0,0,1-.06.46,1.52,1.52,0,0,1-.17.42,2,2,0,0,1-.49.57,2,2,0,0,1-1,.41Z" style="fill:#263238"></path><path d="M256.56,215.44a8,8,0,0,1-.45.8,7.32,7.32,0,0,1-.5.78,5.3,5.3,0,0,1,.45-.81A6.12,6.12,0,0,1,256.56,215.44Z" style="fill:#263238"></path><path d="M255.62,217.19a.16.16,0,0,1-.09,0c-.16-.1-.16-.13.39-1s.53-.83.6-.85a.17.17,0,0,1,.12,0h0a.2.2,0,0,1,.08.1c0,.07,0,.11-.47.93S255.72,217.19,255.62,217.19Z" style="fill:#263238"></path><path d="M258.05,215.44a8,8,0,0,1-.45.8,7.32,7.32,0,0,1-.5.78,5.75,5.75,0,0,1,.44-.81A6.86,6.86,0,0,1,258.05,215.44Z" style="fill:#263238"></path><path d="M257.1,217.18l-.09,0c-.15-.1-.15-.12.4-1s.53-.83.6-.85a.17.17,0,0,1,.12,0h0c.15.09.15.12-.39,1s-.53.83-.6.85Z" style="fill:#263238"></path><path d="M259.53,215.44a5.38,5.38,0,0,1-.44.8,6.49,6.49,0,0,1-.51.78,8.76,8.76,0,0,1,.45-.81A7.79,7.79,0,0,1,259.53,215.44Z" style="fill:#263238"></path><path d="M258.6,217.19l-.1,0c-.15-.1-.15-.13.39-1s.53-.83.6-.85a.2.2,0,0,1,.13,0h0a.18.18,0,0,1,.07.1c0,.07,0,.11-.47.93S258.69,217.19,258.6,217.19Z" style="fill:#263238"></path><path d="M254.84,217.65a8.76,8.76,0,0,1-.45.81,6.55,6.55,0,0,1-.5.77,6,6,0,0,1,.44-.8A7.67,7.67,0,0,1,254.84,217.65Z" style="fill:#263238"></path><path d="M253.89,219.4l-.09,0a.18.18,0,0,1-.07-.1c0-.07,0-.1.47-.93s.56-.92.72-.82h0c.15.09.15.12-.39,1s-.53.83-.6.85Z" style="fill:#263238"></path><path d="M256.32,217.65a5.75,5.75,0,0,1-.44.81,5.88,5.88,0,0,1-.51.77s.19-.37.45-.8A8.84,8.84,0,0,1,256.32,217.65Z" style="fill:#263238"></path><path d="M255.38,219.4l-.09,0a.14.14,0,0,1-.07-.1c0-.07,0-.1.46-.92s.57-.93.73-.83h0c.15.09.15.12-.4,1s-.53.83-.6.85Z" style="fill:#263238"></path><path d="M257.81,217.65a13.4,13.4,0,0,1-.95,1.58s.19-.37.45-.8A8.84,8.84,0,0,1,257.81,217.65Z" style="fill:#263238"></path><path d="M256.86,219.4a.11.11,0,0,1-.08,0,.16.16,0,0,1-.08-.1c0-.07,0-.1.47-.93s.57-.92.72-.82h0c.16.09.16.12-.39,1s-.53.83-.6.85Z" style="fill:#263238"></path><path d="M259.36,217.69a5.38,5.38,0,0,1-.44.8c-.27.44-.49.79-.5.78a5.75,5.75,0,0,1,.44-.81A7.79,7.79,0,0,1,259.36,217.69Z" style="fill:#263238"></path><path d="M258.43,219.44l-.1,0c-.15-.1-.15-.13.39-1s.54-.83.6-.85a.19.19,0,0,1,.13,0h0a.18.18,0,0,1,.07.1c0,.07,0,.11-.46.93S258.53,219.44,258.43,219.44Z" style="fill:#263238"></path><path d="M230.61,209.44v11.09h-1.14V210.45h-2.62v-1Z" style="fill:#263238"></path><path d="M241.78,217.44c0,2-1.66,3.19-4.31,3.19s-4.28-1.22-4.28-3.19a2.77,2.77,0,0,1,2.14-2.73,2.5,2.5,0,0,1-1.74-2.44c0-1.8,1.54-2.93,3.88-2.93s3.92,1.13,3.92,2.93a2.51,2.51,0,0,1-1.78,2.44A2.8,2.8,0,0,1,241.78,217.44Zm-1.17,0c0-1.37-1.17-2.22-3.14-2.22s-3.12.85-3.12,2.22,1.16,2.23,3.12,2.23S240.61,218.8,240.61,217.43Zm-3.14-3.13c1.73,0,2.76-.77,2.76-2s-1.09-2-2.76-2-2.74.76-2.74,2S235.74,214.3,237.47,214.3Z" style="fill:#263238"></path><path d="M243.21,211.23a2.75,2.75,0,1,1,2.74,2.53A2.54,2.54,0,0,1,243.21,211.23Zm4.66,0a1.92,1.92,0,1,0-1.92,1.82A1.79,1.79,0,0,0,247.87,211.23Z" style="fill:#263238"></path><path d="M213.45,176.08v21.13h-3.92V179.37h-4.47v-3.29Z" style="fill:#263238"></path><path d="M217.65,186.64c0-6.94,3.8-10.86,8.81-10.86s8.85,3.92,8.85,10.86-3.81,10.87-8.85,10.87S217.65,193.58,217.65,186.64Zm13.7,0c0-5.1-2-7.45-4.89-7.45s-4.86,2.35-4.86,7.45,2,7.46,4.86,7.46S231.35,191.74,231.35,186.64Z" style="fill:#263238"></path><path d="M237.84,183.41a2.48,2.48,0,1,1,4.95,0,2.48,2.48,0,1,1-4.95,0Zm0,11.5a2.48,2.48,0,1,1,4.95,0,2.48,2.48,0,1,1-4.95,0Z" style="fill:#263238"></path><path d="M245.33,186.64c0-6.94,3.8-10.86,8.81-10.86S263,179.7,263,186.64s-3.81,10.87-8.85,10.87S245.33,193.58,245.33,186.64Zm13.7,0c0-5.1-2-7.45-4.89-7.45s-4.86,2.35-4.86,7.45,2,7.46,4.86,7.46S259,191.74,259,186.64Z" style="fill:#263238"></path><path d="M265.65,186.64c0-6.94,3.8-10.86,8.81-10.86s8.84,3.92,8.84,10.86-3.8,10.87-8.84,10.87S265.65,193.58,265.65,186.64Zm13.7,0c0-5.1-2-7.45-4.89-7.45s-4.86,2.35-4.86,7.45,2,7.46,4.86,7.46S279.35,191.74,279.35,186.64Z" style="fill:#263238"></path><rect x="164.66" y="246.25" width="166.8" height="53.48" rx="8.31" style="fill:#fafafa"></rect><path d="M323.15,299.73s.38,0,1.09-.11a8.15,8.15,0,0,0,3-1.05,8.3,8.3,0,0,0,3.4-3.82,8.45,8.45,0,0,0,.69-3.22c0-1.19,0-2.47,0-3.81,0-5.4,0-12-.06-19.66q0-5.74,0-12.27a12.49,12.49,0,0,0-.26-3.23,8.13,8.13,0,0,0-1.45-2.95,8,8,0,0,0-5.89-3.11L173,246.57a8,8,0,0,0-4.91,1.69,7.88,7.88,0,0,0-2.83,4.32,9.08,9.08,0,0,0-.26,2.62v8.1q0,10.76,0,21.17v5.18c0,.85,0,1.73,0,2.54a8.85,8.85,0,0,0,.6,2.38,8.09,8.09,0,0,0,7.79,4.86H193l67.75.07,45.67.1,12.42.06,3.23,0,1.1,0-1.1,0-3.23,0-12.42.06-45.67.1L193,300H173.39a8.73,8.73,0,0,1-4.95-1.3,8.63,8.63,0,0,1-3.39-3.92,9.09,9.09,0,0,1-.65-2.56c-.07-.9,0-1.74-.05-2.6V255.2a10.13,10.13,0,0,1,.27-2.78,8.64,8.64,0,0,1,8.35-6.48l150.72.12a8.52,8.52,0,0,1,7.7,6.4,12.63,12.63,0,0,1,.27,3.33q0,6.53,0,12.27c0,7.66,0,14.26-.05,19.66,0,1.34,0,2.62,0,3.81a8.34,8.34,0,0,1-4.24,7.14,7.75,7.75,0,0,1-3.07,1A6.5,6.5,0,0,1,323.15,299.73Z" style="fill:#263238"></path><path d="M319.45,257.32a.31.31,0,0,1-.22-.09.3.3,0,0,1,0-.42l4.11-3.94a.3.3,0,0,1,.42.43l-4.11,3.94A.29.29,0,0,1,319.45,257.32Z" style="fill:#263238"></path><path d="M323.54,257.34a.32.32,0,0,1-.21-.08l-4.07-4a.29.29,0,0,1,0-.42.3.3,0,0,1,.42,0l4.07,4a.3.3,0,0,1-.21.51Z" style="fill:#263238"></path><path d="M200.6,283.38,198.93,281a8.54,8.54,0,0,1-1.56-4.9v-5.34a8.7,8.7,0,0,0-7.39-8.6v-2.55a1.17,1.17,0,0,0-1.17-1.17h0a1.17,1.17,0,0,0-1.17,1.17v2.51a8.7,8.7,0,0,0-7.69,8.65v5.53a8.5,8.5,0,0,1-1.81,5.24l-1.44,1.84Z" style="fill:#407BFF"></path><path d="M187.39,287.26a3.77,3.77,0,0,0,3.91-.67,3.72,3.72,0,0,0,1-1.51l-7-.05A3.78,3.78,0,0,0,187.39,287.26Z" style="fill:#407BFF"></path><path d="M294.44,264.32c0,.17-18.68.31-41.73.31s-41.73-.14-41.73-.31,18.68-.31,41.73-.31S294.44,264.15,294.44,264.32Z" style="fill:#263238"></path><path d="M314.11,274.42c0,.17-23.09.31-51.56.31s-51.57-.14-51.57-.31,23.08-.31,51.57-.31S314.11,274.25,314.11,274.42Z" style="fill:#e0e0e0"></path><path d="M314.11,280.47c0,.17-23.09.31-51.56.31s-51.57-.14-51.57-.31,23.08-.31,51.57-.31S314.11,280.3,314.11,280.47Z" style="fill:#e0e0e0"></path><rect x="165.28" y="308.05" width="165.54" height="53.07" rx="8.31" style="fill:#fafafa"></rect><path d="M322.52,361.12s.37,0,1.09-.11a8,8,0,0,0,3-1,8.36,8.36,0,0,0,3.4-3.77,8.48,8.48,0,0,0,.71-3.19v-3.78c0-5.36,0-11.9-.06-19.5q0-5.7,0-12.17a12.3,12.3,0,0,0-.26-3.21,8.24,8.24,0,0,0-1.43-2.93,8,8,0,0,0-5.83-3.13l-149.51.06a8,8,0,0,0-7.73,5.93,8.65,8.65,0,0,0-.27,2.6v2.69c0,1.79,0,3.57,0,5.35v26.14c0,.85,0,1.72,0,2.52a8.62,8.62,0,0,0,.6,2.36,8,8,0,0,0,7.7,4.87h19.43l67.22.07,45.32.1,12.33.06,3.2,0,1.09,0-1.09,0-3.2,0-12.33.06-45.32.1-67.22.07H173.93A8.75,8.75,0,0,1,169,360.1a8.63,8.63,0,0,1-3.35-3.91,9.68,9.68,0,0,1-.65-2.54c-.06-.89,0-1.72,0-2.58v-5.14q0-10.32,0-21v-8a9.66,9.66,0,0,1,.3-2.76,8.66,8.66,0,0,1,8.33-6.39l149.54.12a8.52,8.52,0,0,1,7.62,6.4,12.44,12.44,0,0,1,.26,3.31q0,6.46,0,12.17c0,7.6,0,14.14-.05,19.5,0,1.34,0,2.6,0,3.79a8.18,8.18,0,0,1-.76,3.25,8.34,8.34,0,0,1-3.5,3.8,7.7,7.7,0,0,1-3.05,1A6.38,6.38,0,0,1,322.52,361.12Z" style="fill:#263238"></path><path d="M318.91,319a.3.3,0,0,1-.21-.52l4.08-3.9a.3.3,0,0,1,.42,0,.29.29,0,0,1,0,.42L319.11,319A.3.3,0,0,1,318.91,319Z" style="fill:#263238"></path><path d="M323,319.06a.29.29,0,0,1-.21-.09l-4-3.94a.3.3,0,0,1,0-.42.31.31,0,0,1,.43,0l4,3.94a.31.31,0,0,1,0,.43A.3.3,0,0,1,323,319.06Z" style="fill:#263238"></path><path d="M201,344.9l-1.67-2.36a8.45,8.45,0,0,1-1.54-4.86v-5.3a8.64,8.64,0,0,0-7.33-8.54v-2.53a1.16,1.16,0,0,0-1.17-1.16h0a1.16,1.16,0,0,0-1.16,1.16v2.49a8.65,8.65,0,0,0-7.63,8.59v5.49a8.43,8.43,0,0,1-1.79,5.2l-1.43,1.82Z" style="fill:#e0e0e0"></path><path d="M187.85,348.75a3.77,3.77,0,0,0,3.88-.67,3.6,3.6,0,0,0,1-1.5l-6.91-.05A3.74,3.74,0,0,0,187.85,348.75Z" style="fill:#e0e0e0"></path><path d="M294.09,326c0,.17-18.54.31-41.41.31s-41.42-.14-41.42-.31,18.54-.31,41.42-.31S294.09,325.81,294.09,326Z" style="fill:#263238"></path><path d="M313.61,336c0,.18-22.91.32-51.17.32s-51.18-.14-51.18-.32,22.91-.31,51.18-.31S313.61,335.83,313.61,336Z" style="fill:#e0e0e0"></path><path d="M313.61,342c0,.17-22.91.31-51.17.31s-51.18-.14-51.18-.31,22.91-.31,51.18-.31S313.61,341.84,313.61,342Z" style="fill:#e0e0e0"></path></g><g id="freepik--speech-bubbles-2--inject-102"><path d="M464.9,121.43H429.35a7.06,7.06,0,0,0-7.06,7.06v21.75a7.06,7.06,0,0,0,7.06,7H431l-.63,6.71,8.07-6.71H464.9a7.05,7.05,0,0,0,7.05-7V128.49A7.06,7.06,0,0,0,464.9,121.43Z" style="fill:#fff"></path><path d="M464.9,121.43a1.88,1.88,0,0,1,.35,0,6,6,0,0,1,1,.1,7,7,0,0,1,3.54,1.79,7.24,7.24,0,0,1,1.68,2.39,8,8,0,0,1,.59,3.42c0,2.49,0,5.32,0,8.47s0,6.61,0,10.34c0,.94,0,1.87,0,2.87a7.17,7.17,0,0,1-.84,2.89,7.29,7.29,0,0,1-5,3.68,17.78,17.78,0,0,1-3.25.15H438.42l.16-.06-8.07,6.71-.48.4.06-.63c.1-1.09.21-2.27.32-3.45s.21-2.22.31-3.25l.26.28c-.71,0-1.39,0-2.13,0a6.93,6.93,0,0,1-2.11-.46,7.4,7.4,0,0,1-3.35-2.59,7.26,7.26,0,0,1-1.34-3.95c0-1.37,0-2.69,0-4,0-5.3,0-10.41,0-15.27,0-.61,0-1.21,0-1.81a15.75,15.75,0,0,1,.05-1.81,7.38,7.38,0,0,1,1.29-3.33,7.3,7.3,0,0,1,5.89-3.07l12,0,17.3.08,4.69,0,1.22,0a2.24,2.24,0,0,1,.42,0,2.24,2.24,0,0,1-.42,0l-1.22,0-4.69,0-17.3.08-12,0a6.86,6.86,0,0,0-6.72,6c-.1,1.13,0,2.37,0,3.57,0,4.86,0,10,0,15.27,0,1.32,0,2.67,0,4a6.75,6.75,0,0,0,4.37,6.07A10.24,10.24,0,0,0,431,157h.28l0,.29c-.1,1-.2,2.14-.31,3.25s-.22,2.36-.33,3.45l-.42-.22,8.08-6.7.07-.06h24.76a18.15,18.15,0,0,0,3.16-.13,6.94,6.94,0,0,0,4.67-3.44,6.83,6.83,0,0,0,.8-2.72c.06-.94,0-1.91,0-2.84,0-3.73,0-7.19,0-10.34s0-6,0-8.47a8.07,8.07,0,0,0-.52-3.34,7.11,7.11,0,0,0-5-4.17C465.38,121.43,464.89,121.47,464.9,121.43Z" style="fill:#263238"></path><path d="M441.08,138.87a2.18,2.18,0,1,1-2.18-2.17A2.18,2.18,0,0,1,441.08,138.87Z" style="fill:#263238"></path><path d="M449.3,138.87a2.18,2.18,0,1,1-2.18-2.17A2.18,2.18,0,0,1,449.3,138.87Z" style="fill:#263238"></path><path d="M457.51,138.87a2.17,2.17,0,1,1-2.17-2.17A2.17,2.17,0,0,1,457.51,138.87Z" style="fill:#263238"></path><path d="M428.32,79.38h-24a7.06,7.06,0,0,0-7,7.06v21.75a7.05,7.05,0,0,0,7,7h1.63l-.63,6.71,8.08-6.71h15a7.05,7.05,0,0,0,7.05-7V86.44A7.06,7.06,0,0,0,428.32,79.38Z" style="fill:#fff"></path><path d="M428.32,79.38h.29a4.45,4.45,0,0,1,.86.07,6.82,6.82,0,0,1,3.08,1.25,7,7,0,0,1,2.83,4.41,20.17,20.17,0,0,1,.14,3.34c0,1.18,0,2.43,0,3.75,0,2.63,0,5.52,0,8.64,0,1.56,0,3.18,0,4.85v2.55a7.12,7.12,0,0,1-.51,2.64,7.31,7.31,0,0,1-6.64,4.61H413.36l.16-.06-8.07,6.71-.49.4.06-.62c.11-1.1.22-2.27.33-3.46s.21-2.22.31-3.25l.25.28c-.6,0-1.2,0-1.81,0a7.06,7.06,0,0,1-1.84-.28,7.25,7.25,0,0,1-5-4.94,11.59,11.59,0,0,1-.31-3.49c0-4.55,0-8.93,0-13.1,0-2.09,0-4.12,0-6.09a11.28,11.28,0,0,1,.24-3,7.23,7.23,0,0,1,5.87-5.35,15.72,15.72,0,0,1,2.54-.1h2.41l14.84.08,4,0,1,0,.36,0a1.65,1.65,0,0,1-.36,0l-1,0-4,0-14.84.08h-2.41a14.71,14.71,0,0,0-2.48.11,6.81,6.81,0,0,0-4.33,2.62,6.88,6.88,0,0,0-1.18,2.45,11,11,0,0,0-.21,2.84q0,3,0,6.09c0,4.17,0,8.55,0,13.1a11,11,0,0,0,.29,3.35,6.79,6.79,0,0,0,4.63,4.59,12.28,12.28,0,0,0,3.51.26h.29l0,.28c-.09,1-.2,2.14-.3,3.25s-.23,2.36-.33,3.45l-.42-.22,8.07-6.7.07-.06h12.28c1.95,0,3.9.23,5.55-.58a6.86,6.86,0,0,0,3.58-3.72c.69-1.59.44-3.35.49-5s0-3.29,0-4.85c0-3.12,0-6,0-8.64,0-1.32,0-2.57,0-3.75a21.81,21.81,0,0,0-.11-3.29,7,7,0,0,0-5.66-5.62C428.72,79.39,428.32,79.42,428.32,79.38Z" style="fill:#263238"></path><path d="M424.51,95.42a5.16,5.16,0,0,0-1.3-2.78,4.88,4.88,0,0,0-2.56-1.59,4,4,0,0,0-3.1.59,4.1,4.1,0,0,0-1.28,1.43A3.93,3.93,0,0,0,412,91.16a4.92,4.92,0,0,0-2.57,1.56,5.1,5.1,0,0,0-1.33,2.78,6.23,6.23,0,0,0,.76,3.83,8.81,8.81,0,0,0,3,2.86c2,1.21,4.58,2.71,4.58,2.71s2.21-1.63,4.2-2.82a8.63,8.63,0,0,0,3-2.83A6.22,6.22,0,0,0,424.51,95.42Z" style="fill:#407BFF"></path></g><g id="freepik--speech-bubble-1--inject-102"><path d="M80,114.42l-3.56-6.07a22.4,22.4,0,1,0-3.9,7h0Z" style="fill:#fff"></path><path d="M80,114.42l-.5,0-1.45.16-5.53.65.1.13h0a.09.09,0,0,0,0-.12.09.09,0,0,0-.11,0,22.24,22.24,0,0,1-8.84,6.46,21.72,21.72,0,0,1-6.93,1.55A22.14,22.14,0,0,1,35.79,90.68a21.79,21.79,0,0,1,7.15-7.87,22.35,22.35,0,0,1,9.51-3.58,21.82,21.82,0,0,1,9.53.88,22.25,22.25,0,0,1,14.35,28.22.09.09,0,0,0,0,.07c1.17,1.93,2.07,3.43,2.68,4.45.31.5.54.89.71,1.17l.25.4-.21-.39c-.16-.27-.38-.66-.66-1.16l-2.62-4.56v.07a22.27,22.27,0,0,0,.91-11A22.51,22.51,0,0,0,62.09,79.75a22.21,22.21,0,0,0-9.69-.91,23,23,0,0,0-9.69,3.63,22.22,22.22,0,0,0-7.28,8,22.48,22.48,0,0,0,21.26,33.14,22.1,22.1,0,0,0,7-1.6,22.41,22.41,0,0,0,8.88-6.6l-.15-.1v0a.08.08,0,0,0,0,.11h0l5.58-.77,1.41-.2Z" style="fill:#263238"></path><path d="M61.19,101.19a2.12,2.12,0,1,0,2.12-2.12A2.12,2.12,0,0,0,61.19,101.19Z" style="fill:#263238"></path><path d="M52.69,101.19a2.13,2.13,0,1,0,2.12-2.12A2.12,2.12,0,0,0,52.69,101.19Z" style="fill:#263238"></path><path d="M44.22,100.13a2.12,2.12,0,1,0,2.9-.78A2.12,2.12,0,0,0,44.22,100.13Z" style="fill:#263238"></path></g></svg>