<svg xmlns="http://www.w3.org/2000/svg" viewBox="0 0 500 500"><g id="freepik--background-complete--inject-34"><polygon points="134.51 193.64 134.51 201.14 142.01 201.14 142.01 193.64 142.01 186.15 134.51 186.15 134.51 193.64" style="fill:#ebebeb"></polygon><rect x="134.51" y="148.67" width="7.5" height="7.5" style="fill:#ebebeb"></rect><rect x="180.83" y="231.2" width="7.5" height="7.5" style="fill:#ebebeb"></rect><polygon points="142.01 163.66 142.01 171.15 134.51 171.15 134.51 178.65 142.01 178.65 142.01 186.15 149.51 186.15 157 186.15 157 193.64 164.5 193.64 164.5 186.15 171.99 186.15 171.99 178.65 171.99 171.15 164.5 171.15 164.5 178.65 157 178.65 149.51 178.65 149.51 171.15 149.51 163.66 149.51 156.16 142.01 156.16 142.01 163.66" style="fill:#ebebeb"></polygon><polygon points="157 148.67 149.51 148.67 149.51 156.16 157 156.16 164.5 156.16 164.5 148.67 157 148.67" style="fill:#ebebeb"></polygon><polygon points="190.73 208.93 194.76 208.93 194.76 201.43 190.73 201.43 186.71 201.43 186.71 208.93 190.73 208.93" style="fill:#ebebeb"></polygon><rect x="164.5" y="156.16" width="7.5" height="7.5" style="fill:#ebebeb"></rect><rect x="216.97" y="186.15" width="7.5" height="7.5" style="fill:#ebebeb"></rect><rect x="224.47" y="103.69" width="7.5" height="7.5" style="fill:#ebebeb"></rect><polygon points="186.99 163.66 186.99 156.16 194.48 156.16 194.48 148.67 186.99 148.67 186.99 141.17 179.49 141.17 179.49 148.67 171.99 148.67 171.99 156.16 179.49 156.16 179.49 163.66 179.49 171.15 179.49 178.65 179.49 186.15 186.99 186.15 186.99 178.65 186.99 171.15 194.48 171.15 194.48 163.66 186.99 163.66" style="fill:#ebebeb"></polygon><polygon points="224.47 238.62 231.96 238.62 231.96 231.12 224.47 231.12 216.97 231.12 216.97 238.62 224.47 238.62" style="fill:#ebebeb"></polygon><rect x="209.47" y="103.69" width="7.5" height="7.5" style="fill:#ebebeb"></rect><polygon points="215.1 163.66 215.1 156.16 207.6 156.16 207.6 148.67 200.1 148.67 200.1 156.16 200.1 163.66 192.61 163.66 192.61 171.15 200.1 171.15 207.6 171.15 207.6 163.66 215.1 163.66" style="fill:#ebebeb"></polygon><rect x="249.91" y="148.67" width="7.5" height="7.5" style="fill:#ebebeb"></rect><rect x="172.21" y="186.15" width="7.5" height="7.5" style="fill:#ebebeb"></rect><polygon points="209.47 141.17 209.47 133.67 216.97 133.67 216.97 126.18 224.47 126.18 231.96 126.18 231.96 118.68 224.47 118.68 224.47 111.19 216.97 111.19 216.97 118.68 209.47 118.68 209.47 126.18 201.98 126.18 201.98 133.67 194.48 133.67 194.48 141.17 201.98 141.17 209.47 141.17" style="fill:#ebebeb"></polygon><polygon points="209.47 193.64 209.47 186.15 216.97 186.15 216.97 178.65 209.47 178.65 201.98 178.65 201.98 186.15 194.48 186.15 194.48 193.64 201.98 193.64 209.47 193.64" style="fill:#ebebeb"></polygon><polygon points="231.96 223.62 231.96 216.13 224.47 216.13 216.97 216.13 216.97 208.63 209.47 208.63 209.47 216.13 201.98 216.13 201.98 223.62 194.48 223.62 186.99 223.62 186.99 231.12 194.48 231.12 201.98 231.12 209.47 231.12 209.47 223.62 216.97 223.62 216.97 231.12 224.47 231.12 224.47 223.62 231.96 223.62" style="fill:#ebebeb"></polygon><polygon points="201.98 111.19 201.98 103.69 194.48 103.69 186.99 103.69 186.99 111.19 179.49 111.19 179.49 118.68 186.99 118.68 194.48 118.68 194.48 111.19 201.98 111.19" style="fill:#ebebeb"></polygon><rect x="194.48" y="118.68" width="7.5" height="7.5" style="fill:#ebebeb"></rect><polygon points="220.72 148.67 213.22 148.67 213.22 156.16 213.22 163.66 213.22 171.15 220.72 171.15 228.22 171.15 228.22 163.66 220.72 163.66 220.72 156.16 228.22 156.16 228.22 148.67 235.71 148.67 235.71 141.17 228.22 141.17 228.22 133.67 220.72 133.67 220.72 141.17 220.72 148.67" style="fill:#ebebeb"></polygon><rect x="186.99" y="126.18" width="7.5" height="7.5" style="fill:#ebebeb"></rect><polygon points="216.97 201.14 216.97 208.63 224.47 208.63 231.96 208.63 231.96 201.14 239.46 201.14 246.96 201.14 246.96 193.64 239.46 193.64 231.96 193.64 224.47 193.64 224.47 201.14 216.97 201.14" style="fill:#ebebeb"></polygon><rect x="249.91" y="171.15" width="7.5" height="7.5" style="fill:#ebebeb"></rect><rect x="224.47" y="178.65" width="7.5" height="7.5" style="fill:#ebebeb"></rect><polygon points="250.7 156.16 243.21 156.16 235.71 156.16 235.71 163.66 243.21 163.66 243.21 171.15 250.7 171.15 250.7 163.66 250.7 156.16" style="fill:#ebebeb"></polygon><rect x="239.46" y="178.65" width="7.5" height="7.5" style="fill:#ebebeb"></rect><path d="M164.5,223.77H187V193.63H156.86v7.51h-7.35v7.49h7.35v7.5h-7.35v7.5h7.35v.14H157v7.35h-7.49v15H157v-7.5h7.5V223.77Zm16.72-24.36v18.74H162.48V199.41Z" style="fill:#ebebeb"></path><polygon points="261.95 193.64 269.44 193.64 269.44 186.15 261.95 186.15 254.45 186.15 246.96 186.15 246.96 193.64 254.45 193.64 261.95 193.64" style="fill:#ebebeb"></polygon><polygon points="261.95 163.66 269.44 163.66 269.44 156.16 269.44 148.67 261.95 148.67 261.95 156.16 261.95 163.66" style="fill:#ebebeb"></polygon><polygon points="202.26 201.43 194.76 201.43 194.76 208.93 194.76 216.42 202.26 216.42 202.26 208.93 202.26 201.43" style="fill:#ebebeb"></polygon><rect x="269.44" y="193.64" width="7.5" height="7.5" style="fill:#ebebeb"></rect><polygon points="276.94 178.65 276.94 171.15 269.44 171.15 269.44 178.65 269.44 186.15 276.94 186.15 276.94 178.65" style="fill:#ebebeb"></polygon><polygon points="142.01 231.12 134.51 231.12 134.51 238.62 134.51 246.12 142.01 246.12 142.01 238.62 142.01 231.12" style="fill:#ebebeb"></polygon><path d="M276.94,141.17V103.69H239.46v37.48Zm-31.86-5.62V109.31h26.24v26.24Z" style="fill:#ebebeb"></path><rect x="250.7" y="114.93" width="14.99" height="14.99" style="fill:#ebebeb"></rect><path d="M276.94,208.63H239.46v37.49h37.48Zm-31.86,31.86V214.26h26.24v26.23Z" style="fill:#ebebeb"></path><rect x="250.7" y="219.88" width="14.99" height="14.99" style="fill:#ebebeb"></rect><path d="M134.42,103.69v37.48H171.9V103.69Zm31.86,5.62v26.24H140V109.31Z" style="fill:#ebebeb"></path><rect x="145.66" y="114.93" width="14.99" height="14.99" style="fill:#ebebeb"></rect><circle cx="71.06" cy="250.48" r="3.55" transform="translate(-189.21 257.6) rotate(-75.73)" style="fill:#ebebeb"></circle><path d="M64,245.94a9.84,9.84,0,0,1,14.23-.19c1.81,1.83,4.64-1,2.83-2.81a13.87,13.87,0,0,0-19.87.16c-1.77,1.86,1,4.7,2.81,2.84Z" style="fill:#ebebeb"></path><path d="M51.92,229.42c5.39-4.66,11.83-7.6,19-7.62a28.22,28.22,0,0,1,19.43,7.44c1.87,1.76,4.71-1.05,2.84-2.81A32.42,32.42,0,0,0,71,217.81c-8.3,0-15.68,3.41-21.88,8.78-2,1.68.87,4.5,2.81,2.83Z" style="fill:#ebebeb"></path><path d="M56.67,238.57a19.53,19.53,0,0,1,28.69-.41c1.8,1.85,4.63-1,2.84-2.8a23.51,23.51,0,0,0-34.34.38c-1.74,1.88,1.06,4.72,2.81,2.83Z" style="fill:#ebebeb"></path><path d="M228.1,56.43c.6-4.38-5.59-8-10.24-8.37-2.22-.18-4.52.16-6.62-.57-4.56-1.59-6.38-7.47-10.82-9.34-3.32-1.4-7.15-.16-10.37,1.46s-6.4,3.66-10,3.89c-3.13.2-6.53-1-9.27.57-2,1.14-3.11,3.49-5,4.88s-4.24,1.65-6.52,1.77-4.65.15-6.72,1.1-3.8,3.15-3.37,5.39Z" style="fill:#ebebeb"></path><path d="M108.64,130.55c.54-3.93-5-7.17-9.18-7.5-2-.16-4,.14-5.94-.52-4.08-1.42-5.71-6.69-9.69-8.37-3-1.26-6.41-.14-9.29,1.31s-5.74,3.28-9,3.49c-2.81.18-5.85-.86-8.31.51-1.83,1-2.78,3.13-4.47,4.37s-3.8,1.47-5.85,1.59a16.56,16.56,0,0,0-6,1c-1.86.85-3.4,2.83-3,4.84Z" style="fill:#f5f5f5"></path><path d="M483.38,127.77c.58-4.21-5.36-7.68-9.83-8-2.13-.17-4.34.16-6.36-.55-4.37-1.52-6.12-7.17-10.38-9-3.19-1.34-6.86-.15-9.95,1.41s-6.15,3.51-9.6,3.74c-3,.19-6.27-.93-8.9.54-2,1.09-3,3.35-4.79,4.68s-4.07,1.58-6.26,1.7-4.46.14-6.45,1.06-3.65,3-3.23,5.17Z" style="fill:#f5f5f5"></path></g><g id="freepik--Floor--inject-34"><path d="M474.46,477.06c0,.14-100.5.26-224.45.26s-224.47-.12-224.47-.26S126,476.8,250,476.8,474.46,476.91,474.46,477.06Z" style="fill:#263238"></path></g><g id="freepik--Device--inject-34"><path d="M416.9,422.68l-130.85-.07a28.51,28.51,0,0,1-28.49-28.51L257.63,66a28.5,28.5,0,0,1,28.52-28.5L417,37.62a28.51,28.51,0,0,1,28.49,28.51l-.06,328.06A28.51,28.51,0,0,1,416.9,422.68Z" style="fill:#263238"></path><path d="M416.86,49.22l-25.37,0a6.31,6.31,0,0,0-6.16,6.44v4.6a6.3,6.3,0,0,1-6.16,6.44l-49.45,0a6.3,6.3,0,0,1-6.16-6.44V55.6a6.31,6.31,0,0,0-6.16-6.44h-8.93l-22.2,0a20,20,0,0,0-20,20l-.06,320.21a20,20,0,0,0,19.95,20l130.6.07a20,20,0,0,0,20-20l.07-320.21A20,20,0,0,0,416.86,49.22Z" style="fill:#fff"></path><path d="M436.82,69.19a20,20,0,0,0-20-20l-25.37,0a6.31,6.31,0,0,0-6.16,6.44v4.6a6.3,6.3,0,0,1-6.16,6.44l-49.45,0a6.3,6.3,0,0,1-6.16-6.44V55.6a6.31,6.31,0,0,0-6.16-6.44h-8.93l-22.2,0a20,20,0,0,0-20,20l-.06,30.62H436.81Z" style="fill:#f5f5f5"></path><path d="M422.94,80.44c0,.09-3.06.2-6.83.23a65.77,65.77,0,0,1-6.83-.12,133.38,133.38,0,0,1,13.66-.11Z" style="fill:#263238"></path><path d="M423,83.93a65.16,65.16,0,0,1-6.82.23,65.77,65.77,0,0,1-6.83-.12c0-.09,3.05-.19,6.83-.23S423,83.84,423,83.93Z" style="fill:#263238"></path><path d="M423,87.43c0,.09-3.05.19-6.82.22a67.66,67.66,0,0,1-6.83-.11A133.16,133.16,0,0,1,423,87.43Z" style="fill:#263238"></path><path d="M304.11,322.24l.69-1.45a6.72,6.72,0,0,0,4.3,1.5c2.24,0,3.21-.87,3.21-2,0-3.17-7.88-1.17-7.88-6,0-2,1.56-3.72,5-3.72a7.59,7.59,0,0,1,4.18,1.16L313,313.2a6.76,6.76,0,0,0-3.57-1.06c-2.21,0-3.16.93-3.16,2.07,0,3.18,7.88,1.19,7.88,6,0,2-1.6,3.7-5,3.7A7.78,7.78,0,0,1,304.11,322.24Z" style="fill:#263238"></path><path d="M315.67,318.8a4.93,4.93,0,0,1,5.21-5,4.38,4.38,0,0,1,4,2.1l-1.35.87a3.1,3.1,0,0,0-2.68-1.41,3.47,3.47,0,0,0,0,6.93,3.07,3.07,0,0,0,2.68-1.41l1.35.86a4.41,4.41,0,0,1-4,2.11A4.94,4.94,0,0,1,315.67,318.8Z" style="fill:#263238"></path><path d="M335,317.78v5.94h-1.69v-1.3a3.65,3.65,0,0,1-3.23,1.41c-2.23,0-3.65-1.19-3.65-2.9s1-2.88,4-2.88h2.83v-.35c0-1.5-.88-2.38-2.64-2.38a5,5,0,0,0-3.12,1.06l-.75-1.34a6.6,6.6,0,0,1,4.07-1.26C333.48,313.78,335,315.08,335,317.78Zm-1.78,2.93v-1.37h-2.75c-1.77,0-2.27.68-2.27,1.52s.82,1.6,2.17,1.6A2.86,2.86,0,0,0,333.22,320.71Z" style="fill:#263238"></path><path d="M347.66,318.05v5.67h-1.79v-5.46c0-1.93-1-2.88-2.65-2.88a2.93,2.93,0,0,0-3.13,3.27v5.07h-1.78v-9.85H340v1.49a4.23,4.23,0,0,1,3.55-1.58C346,313.78,347.66,315.16,347.66,318.05Z" style="fill:#263238"></path><path d="M360.31,318.05v5.67h-1.78v-5.46c0-1.93-1-2.88-2.66-2.88a2.92,2.92,0,0,0-3.12,3.27v5.07H351v-9.85h1.71v1.49a4.21,4.21,0,0,1,3.55-1.58C358.62,313.78,360.31,315.16,360.31,318.05Z" style="fill:#263238"></path><path d="M363.31,310.82a1.21,1.21,0,1,1,1.2,1.16A1.17,1.17,0,0,1,363.31,310.82Zm.31,3.05h1.79v9.85h-1.79Z" style="fill:#263238"></path><path d="M378.16,318.05v5.67h-1.79v-5.46c0-1.93-1-2.88-2.66-2.88a2.92,2.92,0,0,0-3.12,3.27v5.07h-1.78v-9.85h1.71v1.49a4.23,4.23,0,0,1,3.55-1.58C376.46,313.78,378.16,315.16,378.16,318.05Z" style="fill:#263238"></path><path d="M390.94,313.87v8.52c0,3.47-1.76,5.05-5.11,5.05a7.28,7.28,0,0,1-4.7-1.47l.85-1.37a6,6,0,0,0,3.79,1.28c2.33,0,3.39-1.08,3.39-3.31v-.78a4.52,4.52,0,0,1-3.55,1.52,4.77,4.77,0,1,1,0-9.53,4.5,4.5,0,0,1,3.64,1.62v-1.53Zm-1.75,4.67a3.4,3.4,0,1,0-3.38,3.21A3.14,3.14,0,0,0,389.19,318.54Z" style="fill:#263238"></path><path d="M393.5,322.55a1.24,1.24,0,0,1,1.27-1.26,1.27,1.27,0,0,1,0,2.54A1.26,1.26,0,0,1,393.5,322.55Z" style="fill:#263238"></path><path d="M397.72,322.55a1.24,1.24,0,0,1,1.27-1.26,1.27,1.27,0,0,1,0,2.54A1.26,1.26,0,0,1,397.72,322.55Z" style="fill:#263238"></path><path d="M401.94,322.55a1.24,1.24,0,0,1,1.27-1.26,1.27,1.27,0,0,1,0,2.54A1.26,1.26,0,0,1,401.94,322.55Z" style="fill:#263238"></path><rect x="281.1" y="340.32" width="137.53" height="36.77" rx="16.62" style="fill:#ebebeb"></rect><path d="M307.65,355.38l-2.31,6.18h-1.07l-1.79-4.69-1.8,4.69H299.6l-2.29-6.18h1.06l1.79,4.92,1.87-4.92H303l1.83,4.95,1.85-4.95Z" style="fill:#263238"></path><path d="M318,355.38l-2.31,6.18h-1.07l-1.78-4.69-1.81,4.69H310l-2.3-6.18h1.06l1.8,4.92,1.86-4.92h.95l1.83,4.95,1.84-4.95Z" style="fill:#263238"></path><path d="M328.43,355.38l-2.3,6.18h-1.08l-1.78-4.69-1.81,4.69h-1.07l-2.3-6.18h1.06l1.8,4.92,1.86-4.92h.95l1.83,4.95,1.84-4.95Z" style="fill:#263238"></path><path d="M328.66,360.83a.78.78,0,0,1,.79-.8.8.8,0,0,1,0,1.6A.79.79,0,0,1,328.66,360.83Z" style="fill:#263238"></path><path d="M331.05,360.91l.47-.89a4,4,0,0,0,2.17.64c1,0,1.46-.31,1.46-.84,0-1.38-3.9-.18-3.9-2.64,0-1.11,1-1.86,2.58-1.86a4.52,4.52,0,0,1,2.25.56l-.48.89a3.24,3.24,0,0,0-1.78-.49c-1,0-1.46.36-1.46.85,0,1.46,3.91.27,3.91,2.67,0,1.12-1,1.83-2.66,1.83A4.48,4.48,0,0,1,331.05,360.91Z" style="fill:#263238"></path><path d="M337.48,353.47a.73.73,0,0,1,.76-.73.73.73,0,1,1,0,1.45A.73.73,0,0,1,337.48,353.47Zm.2,1.91h1.12v6.18h-1.12Z" style="fill:#263238"></path><path d="M344.4,361.2a2.1,2.1,0,0,1-1.35.43,1.77,1.77,0,0,1-2-1.93v-3.4h-1v-.92h1V354h1.12v1.35H344v.92h-1.77v3.35a.92.92,0,0,0,1,1,1.42,1.42,0,0,0,.88-.3Z" style="fill:#263238"></path><path d="M351.11,358.85h-5a2.09,2.09,0,0,0,2.24,1.8,2.31,2.31,0,0,0,1.78-.74l.62.72a3.37,3.37,0,0,1-5.76-2.16,3,3,0,0,1,3.1-3.15,3,3,0,0,1,3.05,3.19C351.13,358.6,351.12,358.74,351.11,358.85Zm-5-.81h4a2,2,0,0,0-4,0Z" style="fill:#263238"></path><path d="M361.92,355.38l-2.31,6.18h-1.07l-1.78-4.69L355,361.56h-1.07l-2.3-6.18h1.06l1.8,4.92,1.86-4.92h.95l1.83,4.95,1.84-4.95Z" style="fill:#263238"></path><path d="M368.44,358.85h-5a2.09,2.09,0,0,0,2.24,1.8,2.3,2.3,0,0,0,1.78-.74l.62.72a3.37,3.37,0,0,1-5.76-2.16,3,3,0,0,1,3.1-3.15,3,3,0,0,1,3.06,3.19C368.47,358.6,368.45,358.74,368.44,358.85Zm-5-.81h4a2,2,0,0,0-4,0Z" style="fill:#263238"></path><path d="M376.42,358.47a3,3,0,0,1-3.12,3.16,2.62,2.62,0,0,1-2.21-1.05v1H370v-8.65h1.12v3.4a2.64,2.64,0,0,1,2.16-1A3,3,0,0,1,376.42,358.47Zm-1.13,0a2.08,2.08,0,1,0-2.09,2.18A2,2,0,0,0,375.29,358.47Z" style="fill:#263238"></path><path d="M377.31,360.83a.78.78,0,0,1,.79-.8.8.8,0,0,1,0,1.6A.79.79,0,0,1,377.31,360.83Z" style="fill:#263238"></path><path d="M379.77,358.47a3.09,3.09,0,0,1,3.27-3.15,2.76,2.76,0,0,1,2.51,1.32l-.85.55a1.91,1.91,0,0,0-1.68-.89,2.18,2.18,0,0,0,0,4.35,1.92,1.92,0,0,0,1.68-.88l.85.53a2.77,2.77,0,0,1-2.51,1.33A3.1,3.1,0,0,1,379.77,358.47Z" style="fill:#263238"></path><path d="M386.34,358.47a3.21,3.21,0,1,1,3.22,3.16A3.08,3.08,0,0,1,386.34,358.47Zm5.29,0a2.08,2.08,0,1,0-4.16,0,2.08,2.08,0,1,0,4.16,0Z" style="fill:#263238"></path><path d="M404.57,358v3.55h-1.11v-3.43c0-1.21-.59-1.8-1.6-1.8a1.79,1.79,0,0,0-1.85,2.05v3.18h-1.12v-3.43c0-1.21-.59-1.8-1.6-1.8a1.79,1.79,0,0,0-1.85,2.05v3.18h-1.12v-6.18h1.07v.92a2.5,2.5,0,0,1,2.13-1,2.3,2.3,0,0,1,2.15,1.15,2.78,2.78,0,0,1,2.38-1.15A2.37,2.37,0,0,1,404.57,358Z" style="fill:#263238"></path><path d="M404.2,365.62c0,.14-23.59.26-52.67.26s-52.68-.12-52.68-.26,23.58-.26,52.68-.26S404.2,365.47,404.2,365.62Z" style="fill:#263238"></path></g><g id="freepik--qr-code--inject-34"><polygon points="294.14 220.88 294.14 227.07 300.33 227.07 300.33 220.88 300.33 214.68 294.14 214.68 294.14 220.88" style="fill:#263238"></polygon><rect x="294.14" y="183.73" width="6.19" height="6.19" style="fill:#263238"></rect><rect x="332.4" y="251.89" width="6.19" height="6.19" style="fill:#263238"></rect><polygon points="300.33 196.11 300.33 202.3 294.14 202.3 294.14 208.49 300.33 208.49 300.33 214.68 306.52 214.68 312.72 214.68 312.72 220.88 318.91 220.88 318.91 214.68 325.1 214.68 325.1 208.49 325.1 202.3 318.91 202.3 318.91 208.49 312.72 208.49 306.52 208.49 306.52 202.3 306.52 196.11 306.52 189.92 300.33 189.92 300.33 196.11" style="fill:#263238"></polygon><polygon points="312.72 183.73 306.52 183.73 306.52 189.92 312.72 189.92 318.91 189.92 318.91 183.73 312.72 183.73" style="fill:#263238"></polygon><polygon points="340.58 233.5 343.9 233.5 343.9 227.31 340.58 227.31 337.25 227.31 337.25 233.5 340.58 233.5" style="fill:#263238"></polygon><rect x="318.91" y="189.92" width="6.19" height="6.19" style="fill:#263238"></rect><rect x="362.25" y="214.68" width="6.19" height="6.19" style="fill:#263238"></rect><rect x="368.44" y="146.58" width="6.19" height="6.19" style="fill:#263238"></rect><polygon points="337.48 196.11 337.48 189.92 343.67 189.92 343.67 183.73 337.48 183.73 337.48 177.54 331.29 177.54 331.29 183.73 325.1 183.73 325.1 189.92 331.29 189.92 331.29 196.11 331.29 202.3 331.29 208.49 331.29 214.68 337.48 214.68 337.48 208.49 337.48 202.3 343.67 202.3 343.67 196.11 337.48 196.11" style="fill:#263238"></polygon><polygon points="368.44 258.02 374.63 258.02 374.63 251.83 368.44 251.83 362.25 251.83 362.25 258.02 368.44 258.02" style="fill:#263238"></polygon><rect x="356.06" y="146.58" width="6.19" height="6.19" style="fill:#263238"></rect><polygon points="360.7 196.11 360.7 189.92 354.51 189.92 354.51 183.73 348.32 183.73 348.32 189.92 348.32 196.11 342.13 196.11 342.13 202.3 348.32 202.3 354.51 202.3 354.51 196.11 360.7 196.11" style="fill:#263238"></polygon><rect x="389.45" y="183.73" width="6.19" height="6.19" style="fill:#263238"></rect><rect x="325.28" y="214.68" width="6.19" height="6.19" style="fill:#263238"></rect><polygon points="356.06 177.54 356.06 171.35 362.25 171.35 362.25 165.15 368.44 165.15 374.63 165.15 374.63 158.96 368.44 158.96 368.44 152.77 362.25 152.77 362.25 158.96 356.06 158.96 356.06 165.15 349.86 165.15 349.86 171.35 343.67 171.35 343.67 177.54 349.86 177.54 356.06 177.54" style="fill:#263238"></polygon><polygon points="356.06 220.88 356.06 214.68 362.25 214.68 362.25 208.49 356.06 208.49 349.86 208.49 349.86 214.68 343.67 214.68 343.67 220.88 349.86 220.88 356.06 220.88" style="fill:#263238"></polygon><polygon points="374.63 245.64 374.63 239.44 368.44 239.44 362.25 239.44 362.25 233.25 356.06 233.25 356.06 239.44 349.86 239.44 349.86 245.64 343.67 245.64 337.48 245.64 337.48 251.83 343.67 251.83 349.86 251.83 356.06 251.83 356.06 245.64 362.25 245.64 362.25 251.83 368.44 251.83 368.44 245.64 374.63 245.64" style="fill:#263238"></polygon><polygon points="349.86 152.77 349.86 146.58 343.67 146.58 337.48 146.58 337.48 152.77 331.29 152.77 331.29 158.96 337.48 158.96 343.67 158.96 343.67 152.77 349.86 152.77" style="fill:#263238"></polygon><rect x="343.67" y="158.96" width="6.19" height="6.19" style="fill:#263238"></rect><polygon points="365.34 183.73 359.15 183.73 359.15 189.92 359.15 196.11 359.15 202.3 365.34 202.3 371.53 202.3 371.53 196.11 365.34 196.11 365.34 189.92 371.53 189.92 371.53 183.73 377.72 183.73 377.72 177.54 371.53 177.54 371.53 171.35 365.34 171.35 365.34 177.54 365.34 183.73" style="fill:#263238"></polygon><rect x="337.48" y="165.15" width="6.19" height="6.19" style="fill:#263238"></rect><polygon points="362.25 227.07 362.25 233.26 368.44 233.26 374.63 233.26 374.63 227.07 380.82 227.07 387.01 227.07 387.01 220.88 380.82 220.88 374.63 220.88 368.44 220.88 368.44 227.07 362.25 227.07" style="fill:#263238"></polygon><rect x="389.45" y="202.3" width="6.19" height="6.19" style="fill:#263238"></rect><rect x="368.44" y="208.49" width="6.19" height="6.19" style="fill:#263238"></rect><polygon points="390.11 189.92 383.92 189.92 377.72 189.92 377.72 196.11 383.92 196.11 383.92 202.3 390.11 202.3 390.11 196.11 390.11 189.92" style="fill:#263238"></polygon><rect x="380.82" y="208.49" width="6.19" height="6.19" style="fill:#263238"></rect><path d="M318.91,245.76h18.58V220.87H312.6v6.2h-6.07v6.19h6.07v6.19h-6.07v6.19h6.07v.12h.12v6.07h-6.19v12.38h6.19V258h6.19V245.76Zm13.81-20.13v15.48H317.24V225.63Z" style="fill:#263238"></path><polygon points="399.39 220.88 405.58 220.88 405.58 214.68 399.39 214.68 393.2 214.68 387.01 214.68 387.01 220.88 393.2 220.88 399.39 220.88" style="fill:#263238"></polygon><polygon points="399.39 196.11 405.58 196.11 405.58 189.92 405.58 183.73 399.39 183.73 399.39 189.92 399.39 196.11" style="fill:#263238"></polygon><polygon points="350.1 227.31 343.9 227.31 343.9 233.5 343.9 239.69 350.1 239.69 350.1 233.5 350.1 227.31" style="fill:#263238"></polygon><rect x="405.58" y="220.88" width="6.19" height="6.19" style="fill:#263238"></rect><polygon points="411.78 208.49 411.78 202.3 405.58 202.3 405.58 208.49 405.58 214.68 411.78 214.68 411.78 208.49" style="fill:#263238"></polygon><polygon points="300.33 251.83 294.14 251.83 294.14 258.02 294.14 264.21 300.33 264.21 300.33 258.02 300.33 251.83" style="fill:#263238"></polygon><path d="M411.78,177.54v-31h-31v31Zm-26.32-4.65V151.22h21.67v21.67Z" style="fill:#263238"></path><rect x="390.11" y="155.87" width="12.38" height="12.38" style="fill:#263238"></rect><path d="M411.78,233.26h-31v30.95h31Zm-26.32,26.31V237.9h21.67v21.67Z" style="fill:#263238"></path><rect x="390.11" y="242.54" width="12.38" height="12.38" style="fill:#263238"></rect><path d="M294.07,146.58v31H325v-31Zm26.31,4.64v21.67H298.71V151.22Z" style="fill:#263238"></path><rect x="303.35" y="155.87" width="12.38" height="12.38" style="fill:#263238"></rect><path d="M285.24,168.16v-22a8.09,8.09,0,0,1,1.74-5.6,7.63,7.63,0,0,1,6-2.5h23.12a.69.69,0,0,0,0-1.38H293.26a9.7,9.7,0,0,0-5.51,1.39,8.75,8.75,0,0,0-3.9,7.22c-.06,3.62,0,7.25,0,10.86v12a.7.7,0,0,0,1.39,0Z" style="fill:#407BFF"></path><path d="M314.1,274.67h-22a8.14,8.14,0,0,1-5.6-1.74,7.65,7.65,0,0,1-2.5-6V243.78a.69.69,0,0,0-1.38,0v22.87a9.72,9.72,0,0,0,1.39,5.51,8.73,8.73,0,0,0,7.22,3.89c3.62.06,7.24,0,10.86,0h12a.69.69,0,0,0,0-1.38Z" style="fill:#407BFF"></path><path d="M419.94,243.56v22a8.09,8.09,0,0,1-1.74,5.6,7.62,7.62,0,0,1-6,2.5H389.05a.69.69,0,0,0,0,1.38h22.87a9.7,9.7,0,0,0,5.51-1.39,8.73,8.73,0,0,0,3.89-7.22c.07-3.62,0-7.24,0-10.86v-12a.69.69,0,0,0-1.38,0Z" style="fill:#407BFF"></path><path d="M389.45,138.07h22a8.09,8.09,0,0,1,5.6,1.75,7.58,7.58,0,0,1,2.5,6V169a.69.69,0,0,0,1.38,0V146.1a9.73,9.73,0,0,0-1.39-5.52,8.73,8.73,0,0,0-7.22-3.89c-3.62-.06-7.24,0-10.86,0h-12a.69.69,0,0,0,0,1.38Z" style="fill:#407BFF"></path></g></svg>